<?xml version="1.0" standalone="no"?>
<!DOCTYPE svg PUBLIC "-//W3C//DTD SVG 1.1//EN" "http://www.w3.org/Graphics/SVG/1.1/DTD/svg11.dtd" >
<svg xmlns="http://www.w3.org/2000/svg" xmlns:xlink="http://www.w3.org/1999/xlink" version="1.1">
<metadata></metadata>
<defs>
<font id="ocramedium" horiz-adv-x="1464" >
<font-face units-per-em="2048" ascent="1638" descent="-410" />
<missing-glyph horiz-adv-x="500" />
<glyph horiz-adv-x="0" />
<glyph unicode="&#xd;" />
<glyph unicode=" " d="M799 1081z" />
<glyph unicode="!" d="M555 139q0 60 6 76q12 25 25 35q18 20 49 26q6 2 70 3q68 0 88 -11q31 -14 45 -45q10 -20 10 -83.5t-10 -84.5q-14 -31 -45 -45q-20 -10 -86 -10q-70 0 -86 6q-16 4 -35 23q-14 14 -25 34q-6 16 -6 76zM555 1423q4 20 10 37q12 23 27 33q20 16 47 20q4 4 66 0q68 0 88 -8 q31 -14 45 -45q8 -18 10 -37q0 -4 -2 -39.5t-9.5 -138t-13.5 -205.5q-6 -90 -12 -184t-9 -142t-3 -50q-4 -35 -31 -60q-16 -16 -37 -22q-10 -4 -31 -4q-18 0 -28 4q-61 20 -68 82q-2 12 -25.5 381.5t-23.5 377.5z" />
<glyph unicode="&#x22;" d="M219 1405v55v56h483h484v-72v-70l-6 -26l-4 -29h-5h-4l-39 -205q-8 -43 -19 -101.5t-17.5 -85t-6.5 -28.5q-14 -57 -71 -72q-23 -8 -47 0q-57 16 -70 70q0 2 -43 213l-41 209h-113h-110l-41 -209q-43 -211 -43 -213q-12 -53 -70 -70q-6 -2 -22 -2q-23 0 -37 6 q-43 14 -58 58q-6 16 -38 201l-50 251z" />
<glyph unicode="#" d="M219 676q0 74 72 94q8 2 63 4h58v107v108h-58q-47 0 -63 4q-72 20 -72 94t72 95q16 4 63 4h58v119q0 129 6 147q4 14 22 33q25 24 52 28q23 4 43 -2l18 -6q29 -16 43 -45q10 -23 10 -149v-125h96h95v119q0 129 6 147q4 14 22 33q12 14 35 24q41 12 78 -4q29 -16 43 -45 q10 -23 10 -149v-125h53q53 0 60 -2q35 -6 57.5 -34t22.5 -62.5t-22.5 -62.5t-57.5 -34q-6 -2 -60 -2h-53v-108v-107h53q53 0 60 -2q35 -8 57.5 -34.5t22.5 -61.5t-22.5 -62.5t-57.5 -33.5q-6 -2 -60 -2h-53v-121q0 -121 -2 -129q-6 -35 -32.5 -57.5t-63.5 -22.5 q-35 0 -61.5 22.5t-34.5 57.5v129v121h-97h-94v-121v-129q-8 -35 -34.5 -57.5t-63.5 -22.5q-35 0 -61.5 22.5t-34.5 57.5v129v121h-58q-55 0 -63 4q-72 20 -72 94zM606 774h94h97v107v108h-97h-94v-108v-107z" />
<glyph unicode="$" d="M217 921.5q0 172.5 2 182.5q8 31 29 51q12 14 35 25q18 6 174 6h147v119q0 129 6 147q4 14 23 33q24 24 51 28q23 4 43 -2l18 -6q29 -16 43 -45q10 -23 11 -149v-125h149q150 0 156 -2q35 -6 57.5 -34t22.5 -62.5t-22.5 -62.5t-57.5 -34q-6 -2 -348 -2h-342v-65v-68h346 q346 0 352 -2q25 -8 37 -20q18 -12 27 -33q8 -16 9 -38t1 -171q0 -147 -1 -169t-9 -38q-14 -31 -46 -45q-2 0 -6 -2q-27 -8 -172 -8h-153v-125q0 -129 -11 -150q-14 -29 -43 -45q-41 -18 -77 -4q-16 4 -35 23q-18 20 -23 34q-6 18 -6 146v121h-153h-152l-8 2q-72 23 -72 96 q0 72 72 94l8 2h346l344 2v66v67h-340q-348 0 -366 7q-18 8 -35 24q-20 20 -29 51q-2 8 -2 180.5z" />
<glyph unicode="%" d="M217 1335q0 90 2 99q8 31 29 51q22 22 51 28l12 3h39h66q119 -2 137 -11q29 -16 43 -45q10 -20 10 -125q0 -106 -10 -127q-14 -29 -43 -45q-18 -8 -133 -10q-119 0 -137 6q-25 12 -35 25q-20 20 -29 51q-2 10 -2 100zM219 266q0 25 12 45q0 2 49.5 64.5t153 194.5 t187.5 243q383 494 397 508q10 10 22 16q17 11 29 11q2 2 18 2q25 0 43 -11q14 -10 25 -18q12 -10 19 -25q10 -20 10 -45q0 -31 -15 -51q0 -2 -49 -64.5t-152.5 -194.5t-187.5 -243q-389 -498 -397 -505q-16 -14 -23 -17q-29 -12 -49 -10q-37 0 -63 29q-12 10 -19 24 q-12 25 -10 47zM797 180q0 100 6 117q4 16 22 35q25 24 52 28h118q115 0 135 -10q29 -12 46 -43q10 -23 10 -127t-10 -125q-14 -31 -46 -45q-20 -10 -133 -10q-119 0 -137 6q-16 4 -35 23q-18 20 -22 34q-6 18 -6 117z" />
<glyph unicode="&#x26;" d="M219 360q0 82 2 91q6 27 27 47q10 10 96 82l86 75q-41 45 -94 103q-23 23 -47.5 50.5t-38.5 41.5l-12 14q-14 16 -17 35q-2 8 -2 92q0 102 8 135q29 111 123 177q59 37 125 45q14 2 129 2q113 0 131 -2q49 -6 92 -29q88 -43 136 -133q25 -55 26 -99q2 -14 2 -100v-84 l-2 -8q-2 -8 -18 -35q-2 -2 -17.5 -14t-47.5 -40l-64 -56q-27 -25 -60.5 -52.5t-48.5 -42.5l-16 -14q-2 -2 100.5 -112.5t106.5 -110.5q23 18 51 43q59 53 76 57q27 14 55 6q33 -8 55.5 -34.5t22.5 -61.5q0 -39 -21 -61q-27 -27 -57 -52l-49 -41l4 -4l8 -8q6 -8 19.5 -22.5 t25.5 -26.5l53 -57q20 -31 16.5 -68t-30.5 -61q-49 -49 -109 -17q-16 8 -79 74q-53 61 -58 61q-33 -27 -71 -61q-74 -63 -76 -66l-33 -16q-8 -2 -119 -2q-113 0 -127 2q-102 12 -176 85t-84 175q-2 12 -2 98zM414 383l2 -53q0 -59 8 -78q18 -37 61 -53q10 -2 95 -2h86l51 43 q53 45 53 47l4 2l-104 112l-105 111q-35 -29 -76 -66zM414 961l82 -89l84 -88q49 41 108 90l109 93l-2 53q0 59 -11 80q-16 39 -61 51q-6 2 -115 2h-112q-59 -12 -78 -70q-2 -8 -2 -65z" />
<glyph unicode="'" d="M508 741v340v351q2 8 12 34q10 16 35 35q10 8 33 12l12 3h39h66q119 -2 137 -11q29 -16 43 -45q2 -4 4 -10l4 -8q4 -25 2 -39q-2 -10 -99.5 -344t-101.5 -340q-14 -37 -47 -49q-41 -18 -82 -2q-39 18 -55 63z" />
<glyph unicode="(" d="M508 537v221v219l2 20q16 102 70 174q6 8 65.5 85t117.5 152t60 77q23 22 54 28q25 4 43 -2q51 -12 67 -63q4 -12 4 -30.5t-4 -31.5q-4 -14 -10 -20q-2 -4 -121 -158q-27 -35 -57.5 -73.5t-46 -59t-17.5 -22.5q-23 -37 -28 -74q-2 -12 -2 -221q0 -211 2 -221 q6 -35 28 -74q8 -12 121 -158q117 -145 121 -155q6 -6 10 -21q4 -12 4 -30.5t-4 -30.5q-23 -61 -88 -68q-41 -4 -76 31q-2 2 -60 76.5t-117.5 151.5t-65.5 85q-53 72 -70 174z" />
<glyph unicode=")" d="M412 98.5q0 18.5 2 26.5q4 14 61 90l119 152q70 88 74 96q20 31 28 74q2 10 2 221q0 209 -2 221q-8 45 -28 72q-6 14 -74 98l-119 151q-55 72 -61 91q-2 8 -2 26.5t2 26.5q4 10 18 35q25 30 64 34q31 6 63 -12q14 -8 143 -174q27 -35 58 -75t47 -60.5t18 -22.5 q53 -78 68 -172l2 -20v-219v-221l-2 -19q-16 -98 -68 -172q-6 -8 -123 -160q-129 -164 -143 -172q-23 -14 -57 -14q-20 4 -37 10q-35 18 -51 62q-2 8 -2 26.5z" />
<glyph unicode="*" d="M219 428q0 45 31 70q4 8 153 133l146 127q-66 57 -146 125q-33 29 -71.5 62.5t-59 51t-22.5 19.5q-31 29 -31 71q0 31 19 60q23 27 51 35q6 2 13 3t13 1q23 0 52 -15q6 -4 120 -102l115 -98l2 149v150l2 8q17 56 72 70q8 2 27 2q23 0 40 -11q39 -20 52 -61l2 -8v-150 l2 -149l112 96q25 20 56.5 48t46.5 40l16 12q31 23 68 17q37 -4 60.5 -32t23.5 -65q0 -25 -10 -45q-2 -6 -17 -22q-2 -2 -23.5 -20.5t-62.5 -54.5t-72 -62l-145 -125q66 -57 145 -127q147 -125 158 -135q14 -16 17 -23q10 -20 10 -45t-10 -43q-20 -45 -74 -55q-37 -4 -68 16 q-4 4 -119 100l-112 99l-2 -150v-149l-2 -8q-12 -43 -52 -62q-18 -10 -40 -10q-16 0 -25 2q-53 12 -74 70l-2 8v149l-2 150l-115 -99q-115 -98 -120 -102q-23 -14 -52 -14q-6 0 -26 4q-29 8 -51 35q-18 29 -19 59z" />
<glyph unicode="+" d="M219 758q0 74 72 94l8 4h152h153v148q0 156 6 174q4 14 23 34q24 23 51 27q20 4 43 0q12 -6 18 -8q29 -16 43 -45q8 -16 9.5 -34.5t1.5 -143.5v-152h149q150 0 156 -2q35 -6 57.5 -33.5t22.5 -62.5t-22.5 -61.5t-57.5 -34.5q-6 -2 -156 -3h-149v-151q0 -125 -1 -143.5 t-10 -34.5q-14 -29 -43 -45q-41 -18 -77 -4q-16 4 -35 22.5t-23 34.5q-6 18 -6 174v147h-153l-152 3l-8 2q-72 23 -72 94z" />
<glyph unicode="," d="M414 567q-8 27 0 51q6 18 18 35q23 29 64 37h209q170 0 192.5 -1t40.5 -9q29 -16 43 -43q8 -16 9 -37.5t1 -253.5v-108q0 -164 -8 -179q-2 -2 -2 -4q-14 -29 -43 -45q-41 -18 -78 -4q-16 4 -35 23q-18 20 -22 34q-6 14 -6 230v203h-154q-156 0 -178 10q-35 18 -51 61z " />
<glyph unicode="-" d="M219 716.5q0 59.5 6 76.5q4 14 23 34q24 21 51 27q6 2 408 2q399 0 405 -2q25 -8 37 -20q18 -12 27 -33q10 -20 10 -84t-10 -84q-8 -20 -27 -33q-12 -12 -37 -20q-6 -2 -403 -2q-399 0 -406 2q-16 0 -37 12q-20 10 -35 35q-2 2 -4 7t-2 7q-6 16 -6 75.5z" />
<glyph unicode="." d="M506 427q0 89 2 99q6 31 29 54q24 20 51 26q6 2 117 2q115 0 137 -10q29 -16 43 -45q10 -20 10 -124.5t-10 -127.5q-16 -31 -43 -43q-23 -10 -135 -10q-117 -2 -136 4q-18 8 -34 24q-23 23 -29 52q-2 10 -2 99z" />
<glyph unicode="/" d="M221 76q-8 25 4 61l385 658q383 657 394 671q24 41 67 47q31 6 68 -12q25 -16 37 -43q20 -41 0 -80q-2 -4 -383 -657t-394 -672q-29 -53 -88 -49q-74 6 -90 76z" />
<glyph unicode="0" d="M219 757.5q0 590.5 6 608.5q14 59 59.5 99t106.5 48h19q16 0 44.5 1.5t65.5 1.5h85h95q311 0 338 -7q59 -16 99.5 -62t46.5 -108q2 -8 2 -589v-580l-4 -12q-12 -53 -41 -86q-51 -59 -131 -70q-8 -2 -316 -2h-305l-12 4q-68 14 -115 68q-29 39 -37 75q-6 20 -6 610.5z M414 197h288h287v561v561h-287h-288v-561v-561z" />
<glyph unicode="1" d="M219 98q0 74 72 95l8 2l152 2h153v561v561h-153h-152l-8 4q-47 14 -64 53q-20 39 0 82q19 45 74 55h6h21.5t30 1.5t39 1.5h47h53h55.5h246v-660v-659h96h94v202q0 209 6 228l9 16q10 20 34 35q27 10 39 12q33 4 64 -14q20 -16 30 -33q8 -14 13 -37q2 -6 2 -266 q0 -264 -8 -279q-2 -4 -2 -6q-14 -31 -46 -45q-6 -2 -18 -8q-8 -2 -410 -2h-401l-10 4q-72 20 -72 94z" />
<glyph unicode="2" d="M219 0v342v342l2 12q14 63 60 105q49 47 118 53q10 2 303 2h287v231v232h-344h-346l-8 4q-47 14 -64 53q-20 39 0 82q19 45 74 55h10h27.5t42.5 1.5t55.5 1.5h64.5h74.5h79.5q356 0 383 -7q57 -14 96.5 -59t49.5 -107q2 -14 2 -255.5t-2 -256.5q-8 -70 -60 -116 q-39 -37 -92 -51l-14 -2l-301 -3h-301q-2 0 -2 -231v-231h342q342 0 348 -2q35 -6 57.5 -34t22.5 -63t-22.5 -62.5t-57.5 -33.5q-8 -2 -447 -2h-438z" />
<glyph unicode="3" d="M219 98q0 72 72 95l8 2l346 2h344v190q0 158 -1 179.5t-9 37.5q-12 33 -45 45q-16 8 -40 9t-194 1h-94q-123 2 -137 9l-4 2q-35 16 -51 61q-2 8 -2 26.5t2 26.5q16 43 51 62q2 0 4 2q12 6 41 7t190 1h209l11 4q53 20 67 70q2 6 2 198v191h-344h-346l-8 4q-47 14 -64 53 q-20 39 0 82q19 45 74 55h10h27.5t42.5 1.5t55.5 1.5h64.5h74.5h79.5q356 0 383 -7q57 -14 96.5 -59t49.5 -107q2 -14 2 -208.5t-2 -212.5q-10 -86 -64 -150l-8 -12q-2 -2 6 -12q31 -33 49 -86q12 -27 15 -56l4 -16v-209v-209l-4 -12q-8 -49 -41 -88q-51 -59 -131 -70 q-8 -2 -361 -2h-350l-8 4q-72 20 -72 94z" />
<glyph unicode="4" d="M266 496v465q0 471 6 491q10 20 25 33q20 22 49 28q25 4 43 -2q16 -4 37 -18q27 -23 35 -51q2 -8 2 -379v-373h190h191v289v291l4 8q16 57 72 70q10 2 26 2q20 0 39 -11q39 -18 51 -61l4 -8v-289v-291h9q55 -6 79 -57q16 -39 0 -80q-23 -51 -79 -57l-9 -2v-207v-92 q-2 -121 -8 -136q-2 -2 -2 -4q-14 -31 -45 -45q-37 -18 -76 -4q-16 4 -35 23q-14 14 -24 34q-6 18 -6 230v203h-289h-289z" />
<glyph unicode="5" d="M227 139q-20 45 2 84q14 33 48 47.5t69 3.5q2 0 14.5 -6t34 -15t41.5 -17q18 -8 40 -17.5t34 -14.5t14 -5q6 -2 236 -2h229v231v231h-289h-288v428v429h342q344 0 350 -3q35 -6 57.5 -33.5t22.5 -62.5t-22.5 -62.5t-57.5 -33.5q-6 -2 -252 -2h-246v-232v-231h199 q209 0 233 -6q59 -16 99.5 -61.5t46.5 -106.5q2 -10 2 -262v-250l-4 -12q-12 -53 -41 -86q-41 -49 -103 -66q-25 -6 -270 -6q-238 0 -256 2q-27 2 -55 12q-186 80 -191 82q-25 16 -39 43z" />
<glyph unicode="6" d="M217 757.5q0 665.5 2 676.5q8 31 29 51q22 22 51 28q10 2 66.5 2.5t64.5 -2.5q31 -6 53 -28q27 -29 27 -68q0 -37 -24.5 -64.5t-59.5 -33.5h-12v-313v-316h346q346 0 352 -2q23 -8 37 -18q18 -14 27 -33q0 -2 2 -4q8 -16 8 -286.5t-8 -287.5l-1 -1t-1 -3q-8 -20 -27 -32 q-12 -12 -37 -21q-6 -2 -403 -2q-399 0 -406 2q-23 4 -37 12q-20 10 -35 35q-4 8 -12 33q-2 10 -2 675.5zM414 197h288h287v149v150h-287h-288v-150v-149z" />
<glyph unicode="7" d="M219 1376q0 60 6 76q4 14 23 33q22 22 51 28h8h20.5t37 1.5t58.5 1.5h79h106.5h136.5h441v-302q0 -307 -6 -325.5t-21 -32.5q-6 -6 -184 -158l-176 -151v-234q0 -190 -1 -214.5t-10 -43.5q-14 -29 -43 -45q-41 -18 -77 -4q-16 4 -35 23q-18 20 -23 34q-6 14 -6 283 q0 266 6 281q4 14 21 32q16 16 182 158l176 150v176v176h-289h-286l-2 -4q-6 -20 -11 -29q-10 -23 -32 -35q-27 -18 -64 -14q-39 6 -59 31q-14 14 -21 32q-6 16 -6 76z" />
<glyph unicode="8" d="M219 428q0 256 6 281q16 61 63.5 102t110.5 45h13v285q0 297 6 311q4 14 22 33q23 22 52 28h8q6 0 21.5 1.5t38 1.5h60h85.5h92q123 -2 137 -9q2 -2 4 -2q29 -16 43 -45q8 -16 9 -38.5t1 -276.5v-289h6q4 0 41 -6q53 -14 91 -53t51 -92q6 -25 6 -285v-250l-4 -12 q-12 -53 -41 -86q-51 -59 -131 -70q-8 -2 -316 -2h-305l-12 4q-68 14 -115 68q-29 39 -37 75q-6 25 -6 281zM414 197h288h287v231v231h-287h-288v-231v-231zM606 856h94h97v231v232h-97h-94v-232v-231z" />
<glyph unicode="9" d="M217 1169q0 254 2 265q8 31 29 51q22 22 51 28h12q12 0 40 1.5t71 1.5h117.5h167.5q399 -2 405 -5q16 -2 37 -18q25 -18 35 -51q2 -8 2 -684t-2 -684q-6 -12 -8 -19q-14 -31 -46 -45q-20 -10 -86 -10q-72 0 -88 6q-18 6 -32 21q-20 20 -27 45q-12 33 6 69q23 47 76 54 l10 2v313v313h-340q-348 0 -366 8q-16 4 -35 23q-20 20 -29 51q-2 10 -2 264zM414 1020h288h287v149v150h-287h-288v-150v-149z" />
<glyph unicode=":" d="M506 427q0 89 2 99q6 31 29 54q24 20 51 26q6 2 117 2q115 0 137 -10q29 -16 43 -45q10 -20 10 -124.5t-10 -127.5q-16 -31 -43 -43q-23 -10 -135 -10q-117 -2 -136 4q-18 8 -34 24q-23 23 -29 52q-2 10 -2 99zM506 1087.5q0 90.5 2 100.5q6 29 29 51q20 21 51 27 q6 2 117 2q115 0 137 -11q29 -16 43 -45q10 -20 10 -124.5t-10 -124.5q-14 -29 -43 -45q-23 -10 -135 -11q-117 0 -136 6q-16 4 -34 23q-23 23 -29 51q-2 10 -2 100.5z" />
<glyph unicode=";" d="M410 1168q0 89 2 100q6 31 28 53q25 21 52 27q6 2 116 2q115 0 137 -11q29 -16 43 -45q10 -20 10.5 -124.5t-10.5 -125.5q-14 -29 -43 -45q-18 -8 -135 -10q-117 0 -135 6q-23 10 -35 25q-25 25 -28 51q-2 8 -2 97zM414 567q-8 27 0 51q6 18 18 35q23 29 64 37h209 q170 0 192.5 -1t40.5 -9q29 -16 43 -43q8 -16 9 -37.5t1 -253.5v-108q0 -164 -8 -179q-2 -2 -2 -4q-14 -29 -43 -45q-41 -18 -78 -4q-16 4 -35 23q-18 20 -22 34q-6 14 -6 230v203h-154q-156 0 -178 10q-35 18 -51 61z" />
<glyph unicode="&#x3c;" d="M217 757.5q0 49.5 2 57.5q8 25 12 33q10 18 31 33q16 10 393 231t385 225q9 7 27 11q4 2 20 2q25 0 43 -11q14 -10 25 -18q12 -10 19 -25q10 -20 10 -45q0 -49 -39 -77q-6 -6 -357 -211l-348 -205q158 -92 348 -205q84 -49 173.5 -102.5t135.5 -81t48 -27.5 q39 -29 39 -78q0 -25 -10 -45q-6 -14 -19 -24q-14 -14 -25 -19q-25 -12 -47 -10q-23 0 -43 10q-2 2 -195.5 116t-385 226.5t-197.5 116.5q-18 12 -31 31q-2 4 -6 15t-6 17q-2 10 -2 59.5z" />
<glyph unicode="=" d="M227 553q-20 41 0 80q19 47 74 57h399q408 0 422 -6q37 -14 54 -49q20 -45 -3.5 -88t-70.5 -51h-406h-397l-8 2q-49 18 -64 55zM227 965q-25 51 9 94q22 37 65 43h399q403 2 422 -6q37 -14 54 -49q20 -45 -3.5 -88.5t-70.5 -51.5h-406h-397l-8 2q-49 18 -64 56z" />
<glyph unicode="&#x3e;" d="M219 266q0 18 4 27q8 31 39 51q4 4 356 209l345 205q-156 92 -345 203l-356 210q-31 20 -39 50q-4 10 -4 26q-2 25 10 49q6 14 19 25q10 14 22 16q17 11 27 11q4 2 18 2q25 0 41 -9q43 -29 781 -458q23 -12 34 -35q8 -12 13 -33q2 -8 2 -57t-2 -60q-4 -18 -13 -32 q-12 -23 -34 -33q-18 -12 -397.5 -234.5t-383.5 -224.5q-18 -8 -45 -8q-37 0 -63 29q-12 10 -19 24q-12 25 -10 47z" />
<glyph unicode="?" d="M219 922q0 41 31 71q6 6 288.5 249t295.5 251q20 16 45 20q37 6 69 -14q8 -6 102.5 -86t104.5 -90q20 -20 27 -45l4 -10v-99v-98l-4 -10q-4 -20 -19 -35q-12 -14 -280 -244l-277 -235v-64q0 -74 -6 -90q-4 -14 -20 -33q-23 -23 -56 -28q-39 -8 -71.5 15.5t-40.5 62.5 q-2 10 -2 100t2 100q6 29 28 52q31 31 281 239l268 232v36v37l-22 21l-47 39l-25 22l-260 -221q-264 -225 -266 -227q-45 -29 -97 -4q-53 27 -53 86zM412 98q0 20 8 39q21 52 76 58q12 4 39 -2q53 -12 69 -70q4 -25 0 -49q-16 -55 -72 -72q-25 -4 -47 0q-39 12 -57 41 q-16 25 -16 55z" />
<glyph unicode="@" d="M219 469q0 195 2 213q12 96 80 168q68 68 166 84q29 4 133 4h121l10 -4q51 -20 66 -68l2 -10v-291l2 -293l4 -10q4 -16 16 -31q12 -16 33 -24q18 -10 41 -10t41 10q33 14 49 55l4 10v453v463q-14 92 -100 123q-25 8 -180.5 8t-161.5 -2q-39 -4 -78 -33t-61 -67 q-12 -25 -23 -35q-18 -18 -49 -27q-25 -4 -41 2q-55 12 -72 64q-4 10 -4 26q-2 23 10 51q31 49 45 68q31 41 68 68q88 67 197 79h6h12h19.5h26.5h30.5h35h38.5q166 0 182 -2q115 -18 194 -98q35 -35 50 -61q37 -57 49 -133l4 -15v-465q0 -465 -2 -483q-12 -102 -88 -174 q-63 -63 -160 -80q-41 -4 -82 0q-82 12 -137 59q-12 8 -15 11q-2 0 -12 -9q-61 -49 -139 -61q-43 -4 -84 0q-92 14 -160 80q-74 74 -86 174q-2 16 -2 213zM416 272l4 -10q16 -45 55 -59q49 -18 92 14q25 23 33 47l2 8v236l2 233h-53q-55 0 -57 -2q-4 0 -17 -4 q-45 -16 -59 -63l-2 -8v-195v-197z" />
<glyph unicode="A" d="M221 76q-8 23 0 45q4 14 195.5 668.5t193.5 662.5q4 14 23 33q24 24 51 28q23 4 43 -2l18 -6q33 -18 43 -45q12 -33 199 -674q195 -666 197 -669v-19q0 -48 -38 -78q-26 -20 -56 -21q-14 0 -29 5q-49 14 -66 59q-2 2 -41 138l-36 129h-218h-215l-39 -131 q-39 -135 -40 -138q-10 -29 -37 -45q-24 -16 -50 -16q-19 0 -39 8q-48 19 -59 68zM543 526h80h157h80l-80 269l-78 270q0 2 -10 -33t-29.5 -101.5t-39.5 -133.5z" />
<glyph unicode="B" d="M219 0v758v758h305l305 -3l19 -2q131 -20 223 -112q20 -20 51 -62q53 -80 62 -176q2 -18 2 -73.5t-2 -73.5q-16 -141 -113 -238l-18 -18l18 -19q35 -35 51 -61q47 -74 60 -162q4 -18 4 -88t-4 -88q-16 -111 -82 -193q-29 -33 -62 -61q-76 -59 -176 -80q-35 -6 -346 -6 h-297zM414 197h202h201l14 2q96 23 138 104q14 33 16 53q4 12 4 71.5t-4 72.5q-18 98 -104 139q-27 14 -50 18l-14 2h-201h-202v-231v-231zM414 856h202h201l14 4q57 12 97.5 50t54.5 94q6 23 6 92q0 51 -4 63q-18 94 -104 139q-21 11 -50 17l-14 4h-201h-202v-232v-231z " />
<glyph unicode="C" d="M221 707q-2 26 -2 51.5t2 50.5q8 68 33 123q8 16 111.5 224t109.5 218q74 121 213 139q16 3 213 3h52q145 0 151 -3q35 -6 57.5 -33.5t22.5 -62.5q0 -68 -60 -90q-18 -8 -219 -8q-197 0 -205 -2q-31 -10 -51 -35q-4 -6 -61 -121q-143 -283 -156 -311q-10 -20 -14 -53 q-4 -20 -4 -39.5t4 -38.5q4 -33 14 -53q18 -43 156 -314q59 -115 61 -119q20 -25 51 -34q8 -2 205 -2q205 -2 219 -9q59 -23 60 -90q0 -35 -22.5 -62.5t-57.5 -33.5q-10 -2 -201.5 -2t-208.5 2q-141 16 -219 139q-6 8 -109.5 215t-111.5 228q-23 51 -33 123z" />
<glyph unicode="D" d="M219 98q0 74 72 95q8 2 63 4h58v561v561h-58q-55 0 -63 4q-47 14 -64 53q-10 20 -10 40t10 42q19 45 74 55h10q12 0 30.5 1.5t42.5 1.5h54.5h61.5q195 0 209 -3q145 -16 219 -139q0 -2 14 -29.5t45 -87t53 -104.5q121 -240 134 -289q12 -55 12 -106t-12 -107 q-12 -49 -134 -289q-111 -217 -114 -223q-16 -31 -64 -73q-63 -51 -149 -64q-18 -2 -217 -2h-197l-8 4q-72 20 -72 94zM606 197h45q49 0 68 10q23 10 35 26q6 8 170 334q35 70 53 111q10 37 12 61v12q0 42 -12 87q-18 41 -53 110q-164 326 -170 334q-23 25 -54 35q-2 0 -7 1 t-16 1h-26h-45v-561v-561z" />
<glyph unicode="E" d="M219 0v758v758h438q438 0 447 -3q35 -6 57.5 -33.5t22.5 -62.5t-22.5 -62.5t-57.5 -33.5q-6 -2 -348 -2h-342v-232v-231h153q156 0 178 -10q29 -16 43 -45q10 -20 10.5 -43t-10.5 -43q-14 -29 -43 -45q-18 -8 -98 -11h-80h-153v-231v-231h342q342 0 348 -2 q35 -6 57.5 -34t22.5 -63t-22.5 -62.5t-57.5 -33.5q-8 -2 -447 -2h-438z" />
<glyph unicode="F" d="M219 428v375v713h438q438 0 447 -3q35 -6 57.5 -33.5t22.5 -62.5t-22.5 -62.5t-57.5 -33.5q-6 -2 -348 -2h-342v-150v-149h250h247l9 -2q51 -16 67 -66q4 -10 4 -30q0 -18 -4 -29q-16 -49 -67 -66l-9 -2h-247l-250 -2v-370q0 -373 -2 -379q-8 -23 -19 -37 q-14 -18 -33 -27q-23 -10 -45 -10q-17 0 -32 6q-18 6 -35 23q-18 20 -23 34l-2 3q-4 12 -4 362z" />
<glyph unicode="G" d="M217 559q0 279 4 299q10 100 64 180q90 121 147 195q150 188 154 190q72 74 174 90q16 2 176 3q162 0 168 -3q35 -6 57.5 -33.5t22.5 -62.5q0 -68 -60 -90q-18 -8 -182 -8q-133 0 -152.5 -1t-36 -9.5t-32.5 -27.5t-131 -167q-31 -39 -67 -86l-54 -70.5t-20 -25.5 q-23 -31 -31 -74l-2 -12v-285q0 -283 2 -291q12 -45 53 -63q2 0 4 -2q10 -6 39 -7t188 -1q168 0 192 1t40 9q33 12 45 45q10 20 10 133v111h-100q-109 0 -125 6q-16 4 -34.5 22.5t-22.5 36.5q-7 16 -7 33q0 15 5 31q6 14 24 37q18 18 35 22q18 6 223 6h199v-207 q0 -207 -2 -225q-4 -41 -29 -94q-70 -141 -227 -162q-18 -2 -226 -2q-221 0 -251 6q-57 14 -93 37q-121 78 -137 219q-4 18 -4 297z" />
<glyph unicode="H" d="M217 757.5q0 665.5 2 676.5q8 31 29 51q24 24 51 28q25 4 43 -2q2 0 5 -1t7 -3t6 -2q33 -18 43 -45q8 -16 9.5 -38.5t1.5 -276.5v-289h288h287v285q0 291 6 311q10 20 25 33q12 14 35 24q18 5 34 5q22 0 41 -9q31 -14 46 -45q2 -6 8 -18q2 -8 2 -684t-2 -684 q-6 -12 -8 -19q-14 -31 -46 -45q-21 -10 -42 -10q-16 0 -33 6q-16 4 -35 23q-14 14 -25 34q-6 18 -6 312v284h-287h-288v-288v-121q0 -178 -8 -191q-2 -2 -3 -4q-10 -27 -43 -45q-23 -10 -45 -10q-17 0 -32 6q-18 6 -35 23q-18 20 -29 53q-2 10 -2 675.5z" />
<glyph unicode="I" d="M219 98q0 74 72 95l8 2l152 2h153v561v561h-153h-152l-8 4q-47 14 -64 53q-10 20 -10 40t10 42q19 45 74 55h10h31.5t47.5 1.5t62.5 1.5h73.5h84h90q395 0 404 -3q35 -6 57.5 -33.5t22.5 -62.5t-22.5 -62.5t-57.5 -33.5q-6 -2 -156 -2h-149v-561v-561h149q156 0 174 -7 q37 -16 54 -51q9 -21 9 -41q-1 -24 -13 -47q-24 -43 -70 -49q-6 -2 -406 -2h-397l-8 4q-72 20 -72 94z" />
<glyph unicode="J" d="M314 439v91q0 73 1 80q2 4 6.5 15.5t6.5 17.5q14 20 34 35q25 10 39 12q6 1 12 1q27 0 52 -15q29 -16 39 -47q6 -18 6 -187v-73q2 -100 8 -115l2 -2q20 -41 64 -53l8 -2h108q115 0 136 10q41 18 53 63q2 6 4 584q0 580 2 586q8 29 29 49q22 18 49 24q25 4 41 -2 q12 -2 39 -18q23 -20 32 -51q2 -8 2 -585.5t-2 -596.5q-2 -31 -14 -65q-29 -80 -95.5 -131.5t-150.5 -61.5q-16 -2 -123.5 -2t-123.5 2q-102 12 -176 85t-85 175q-2 16 -3 177z" />
<glyph unicode="K" d="M217 757.5q0 665.5 2 676.5q8 31 29 51q24 24 51 28q25 4 43 -2q2 0 5 -1t7 -3t6 -2q29 -16 43 -45q8 -16 9.5 -35.5t1.5 -222.5l2 -231l303 260q299 258 311 264q26 20 56 20q16 0 34 -6q39 -16 56 -51q11 -24 11 -45q0 -37 -34 -67l-346 -297l-340 -291 q154 -131 340 -291q344 -295 346 -297q31 -31 31 -72q0 -45 -31 -71q-31 -29 -65 -29q-28 0 -58 20q-2 2 -43 37t-118.5 101.5t-149.5 128.5l-303 258l-2 -232v-96q0 -143 -8 -156q-2 -2 -3 -4q-14 -29 -43 -45q-23 -10 -45 -10q-17 0 -32 6q-18 6 -35 23q-18 20 -29 53 q-2 10 -2 675.5z" />
<glyph unicode="L" d="M219 0v713v374q0 350 4 363q2 0 2 2q4 14 23 33q24 24 51 28q25 4 43 -2q10 -2 37 -18q23 -20 33 -51q2 -8 2 -627v-618h342q342 0 348 -2q35 -6 57.5 -34t22.5 -63t-22.5 -62.5t-57.5 -33.5q-8 -2 -447 -2h-438z" />
<glyph unicode="M" d="M219 428v375v713h121h123l14 -19l113 -164l106 -151l6 -6l119 170l119 170h123h123v-717q0 -719 -2 -725q-16 -46 -53 -64q-21 -11 -43 -10q-16 0 -33 6q-18 6 -33 21q-18 16 -31 49v2v12v20.5v35t-1 52t-1 75.5v99.5v129.5v162v579l-94 -135l-96 -135v-29q0 -49 -13 -72 q-8 -12 -32 -32q-23 -15 -54 -15h-10q-25 4 -39 13q-29 18 -41 47q-6 16 -6 55l-2 35l-94 133l-92 133l-2 -579q0 -582 -2 -588q-12 -45 -52 -64q-23 -10 -45 -10q-17 0 -32 6q-18 6 -35 23q-18 20 -23 34l-2 3q-4 12 -4 362z" />
<glyph unicode="N" d="M219 428v375v713h129l129 -3l12 -28l256 -584l244 -553v543v187v140.5t1 97.5t1 64.5v36v17.5v6q12 33 31 49q14 14 33 20q18 5 34 5q22 0 41 -9q37 -18 54 -63q2 -8 2 -725v-717h-129h-131l-256 584l-254 581l-2 -542q0 -543 -2 -549q-12 -45 -52 -64q-23 -10 -45 -10 q-17 0 -32 6q-18 6 -35 23q-18 20 -23 34l-2 3q-4 12 -4 362z" />
<glyph unicode="O" d="M221 707q-2 26 -2 51.5t2 50.5q10 68 29 115q6 14 116.5 236t118.5 235q51 78 138 106q26 10 49 12q2 0 12 1.5t16 1.5q68 0 127.5 -34t92.5 -91l18 -35q16 -33 45 -89.5t55 -111.5q104 -207 119 -240q29 -78 29 -156q0 -63 -19 -126q-12 -39 -129 -275l-118 -233 q-20 -33 -35 -47q-57 -60 -139 -74q-23 -4 -46 -4q-57 0 -110 27q-63 31 -105 94q-8 12 -118.5 234.5t-116.5 236.5q-18 45 -29 115zM418 719q4 -31 14 -51q4 -12 112.5 -229.5t114.5 -225.5q12 -12 29 -14q29 -8 55 14q6 8 68 131l111 221q39 74 55 113q12 43 12 86v12 q-2 25 -12 62q-16 39 -55 112l-111 221q-61 123 -68 129q-14 15 -28 17q-35 6 -56 -17q-10 -10 -114 -223l-113 -229q-10 -20 -14 -51q-4 -20 -4 -40t4 -38z" />
<glyph unicode="P" d="M219 428v375v713h350h2h2h5h2h2h2h2h2h4h2h2h2h2h2h4h2h2h2h2h2h2h5h2h2h2h2h2h2h4h2h2h2h2h2h2h2h2h2h5h2h2h2h2h2h2h2h2h2h2h2h2h2h4h2h2h2h2h2h3h2h2h2h2h2h2h2h2h2h2q209 -2 231 -9l7 -2q88 -20 149.5 -91t71.5 -161q2 -18 2 -206.5t-2 -206.5q-12 -102 -84 -174 t-172 -86q-18 -2 -266 -2h-248v-248v-105q0 -154 -8 -166q-2 -2 -3 -4q-14 -29 -43 -45q-23 -10 -45 -10q-17 0 -32 6q-18 6 -35 23q-18 20 -23 34l-2 3q-4 12 -4 362zM414 774h248q201 0 227 1t45 9q33 12 45 45q0 2 2 5q8 14 8 213v190l-4 10q-13 54 -70 70q-6 2 -253 2 h-248v-272v-273z" />
<glyph unicode="Q" d="M219 524v299l4 19q14 109 82 190q14 20 55 56t228 196q70 59 110 94q104 90 119 99q48 30 101 36q16 2 31 2q71 0 128 -38q94 -61 107 -172q2 -12 2 -306q0 -303 -6 -340q-23 -117 -105 -202q-6 -8 -88 -78l-72 -62l37 -98l9 -22h67q70 0 76 -2q35 -6 57.5 -34t22.5 -63 t-22.5 -62.5t-57.5 -33.5q-6 -2 -143 -2h-134l-34 90l-37 90q-35 -29 -76 -65q-82 -70 -90 -74q-63 -43 -130 -43q-55 0 -112 29q-94 49 -123 153q-6 23 -6 344zM416 227l2 -6q4 -12 20 -20q6 -4 18.5 -4t18.5 4q8 4 103 86l100 84l4 4l-37 92q-8 23 -18.5 48.5t-15.5 38.5 t-5 15q-3 12 -3 25q0 24 13 49q14 20 35 35q25 10 39 12q6 1 12 1q27 0 52 -15q25 -20 32 -33q4 -10 19 -47l24 -64l11 -22l41 35q37 31 53 47q41 43 51 100l4 15v290v291l-4 6q-6 15 -20 21q-18 10 -39 -2q-10 -6 -400 -340q-47 -39 -63 -55q-33 -39 -45 -95l-2 -14v-291 v-291z" />
<glyph unicode="R" d="M219 428v375v713h350h2h2h5h2h2h2h2h2h4h2h2h2h2h2h4h2h2h2h2h2h2h5h2h2h2h2h2h2h4h2h2h2h2h2h2h2h2h2h5h2h2h2h2h2h2h2h2h2h2h2h2h2h4h2h2h2h2h2h3h2h2h2h2h2h2h2h2h2h2q209 -2 231 -9l7 -2q88 -20 149.5 -91t71.5 -163q2 -12 2 -90q-2 -82 -10 -114q-18 -78 -77 -135.5 t-136 -77.5q-31 -8 -115 -11h-72l201 -342q201 -344 201 -348q8 -22 8 -41q0 -38 -33 -65q-27 -27 -65 -27h-5q-41 2 -69 33q-6 6 -15 22l-229 391l-221 377h-68h-67v-370q0 -373 -2 -379q-8 -23 -19 -37q-14 -18 -33 -27q-23 -10 -45 -10q-17 0 -32 6q-18 6 -35 23 q-18 20 -23 34l-2 3q-4 12 -4 362zM414 1020h248h108q145 2 160 8q2 2 4 2q33 16 45 47q10 18 10 92t-10 95q-19 37 -64 53q-6 2 -253 2h-248v-150v-149z" />
<glyph unicode="S" d="M219 238q-1 9 -1 17q0 45 28 75q18 20 45 26q8 4 24 4q41 0 68 -26q29 -25 31 -70q0 -4 1 -8t1 -6t1 -5t1 -5q12 -29 41 -39l8 -4h252h250l6 2q25 12 12 30q0 6 -364 471q-362 467 -369 474q-35 55 -35 121.5t37 119.5q56 86 154 98h11t28.5 1.5t47 1.5h76h107.5 q260 0 272 -3q92 -12 158 -77q63 -63 74 -158q1 -11 1 -21q0 -46 -30 -75q-29 -27 -68 -27q-16 0 -26 2q-25 8 -43 27q-27 27 -29 67q0 12 -4 25q-10 29 -41 39l-8 4h-252h-254l-4 -4q-16 -14 -10 -31q2 -2 364 -469q365 -465 369 -473q29 -45 35 -94q2 -14 2 -28 q0 -66 -39 -122q-47 -68 -127 -90q-31 -8 -299 -8q-258 0 -270 2q-92 12 -158 78q-63 68 -74 158z" />
<glyph unicode="T" d="M219 1380v136h483h484v-136q0 -145 -8 -163q-12 -39 -54 -56q-14 -6 -37 -6q-27 0 -43 8q-33 18 -49 54q-6 25 -6 65v37h-94h-96v-619q0 -621 -2 -626q-12 -45 -52 -64q-23 -10 -45 -10q-17 0 -32 6q-16 4 -35 23q-18 20 -23 34q-6 16 -6 232v410v614h-96h-94v-37 q0 -49 -6 -65q-16 -39 -56 -56q-12 -6 -36.5 -6t-41.5 8q-37 20 -49 54q-6 18 -6 163z" />
<glyph unicode="U" d="M219 852v301q0 285 4 297q2 0 2 2q4 14 23 33q24 24 51 28q25 4 43 -2q10 -2 37 -18q23 -20 33 -51q2 -8 2 -586q2 -580 4 -586q12 -45 53 -63q2 0 4 -2q10 -6 39 -7t188 -1q168 0 192 1t40 9q41 20 53 63q2 6 2 584q0 485 2 582v4q12 33 31 49q14 14 33 20q18 5 34 5 q22 0 41 -9q37 -18 54 -63q2 -8 2 -585.5t-2 -596.5q-4 -43 -29 -96q-70 -141 -227 -162q-18 -2 -226 -2q-209 0 -221 2q-139 16 -215 133q-27 39 -41 96q-6 25 -6 621z" />
<glyph unicode="V" d="M219 1069v178q0 186 6 205q4 14 23 33q24 24 51 28q25 4 43 -2q2 0 5 -1t7 -3t6 -2q29 -16 43 -45q8 -18 9.5 -36.5t1.5 -153.5l2 -166l143 -367l143 -366q66 166 144 368l143 367v160q0 168 6 186q10 20 25 33q12 14 35 24q18 5 34 5q22 0 41 -9q31 -14 46 -45 q10 -20 10 -94v-115v-182l-197 -506q-199 -506 -201 -510q-6 -12 -20 -26q-27 -27 -63 -27q-10 0 -21 2q-49 10 -72 55q-2 4 -192 494l-195 502z" />
<glyph unicode="W" d="M217 236v589q0 602 8 625q4 16 23 35q24 24 51 28q25 4 43 -2q10 -2 37 -18q23 -20 33 -51q2 -8 2 -580v-573l28 -45l27 -47h41h39l26 45l29 47v325v136q0 199 8 211q0 2 2 4q18 41 62 53q8 2 24 2q25 0 45 -10q29 -16 43 -45q8 -16 9.5 -41t1.5 -310l2 -325l26 -45 l27 -47h41h39l29 47l26 47v567q0 573 6 594q10 20 25 33q12 14 35 24q18 5 34 5q22 0 41 -9q37 -18 54 -63q2 -8 2 -606v-600l-53 -91q-55 -92 -60 -100q-14 -23 -33 -31q-10 -8 -34 -12q-6 -2 -117 -2q-106 0 -117 4q-39 12 -61 49l-9 15l-10 -15q-20 -37 -61 -49 q-8 -4 -115 -4q-111 0 -117 2q-23 4 -37 12q-18 10 -32 33l-60 98z" />
<glyph unicode="X" d="M221 76q-8 25 4 61q0 2 23.5 42t70 119t89.5 153l180 307q-82 139 -180 307q-176 299 -183 313q-8 19 -8 38q0 21 10 42q19 45 74 55q9 1 17 1l49 -13q12 -6 30 -31q6 -14 156 -264l147 -254l5 4l147 252l152 258q26 40 70 48l16 2q35 0 63 -27q23 -25 29 -49 q4 -12 4 -24q0 -19 -10 -38q0 -6 -181 -313l-180 -307q82 -139 180 -307q180 -311 181 -314q10 -18 10 -38q0 -12 -4 -25q-6 -29 -29 -47q-27 -27 -63 -27q-8 0 -16 1q-46 7 -70 48l-152 256l-147 254l-5 4l-147 -256q-152 -250 -156 -264q-20 -29 -47 -37q-17 -6 -33 -6 q-24 0 -47 12q-39 20 -49 64z" />
<glyph unicode="Y" d="M217 1219v98q0 113 8 133q4 16 23 35q24 24 51 28q25 4 43 -2q2 0 5 -1t7 -3t6 -2q29 -16 43 -45q10 -20 11 -100l2 -76l143 -182q35 -45 60.5 -78t41 -52.5t24.5 -31.5t13 -16l4 -4l19 22q18 23 56 72t71 90l141 182v70q0 78 6 96q10 20 25 33q12 14 35 24q18 5 34 5 q22 0 41 -9q31 -14 46 -45q10 -20 10 -133v-108l-49 -64l-193 -248l-143 -182l-2 -322v-133q0 -199 -8 -211l-3 -4q-14 -29 -43 -45q-23 -10 -45 -10q-16 0 -32 6q-16 4 -35 23q-18 20 -23 34q-6 14 -6 345v315l-194 248z" />
<glyph unicode="Z" d="M219 0v63v62l19 33q678 1157 677 1161h-307h-309l-8 4q-47 14 -64 53q-10 20 -10 40t10 42q19 45 74 55h12h35t52.5 1.5t69.5 1.5h82h93h100h441v-62v-63l-19 -31l-680 -1163h304q307 0 313 -2q35 -6 57.5 -34t22.5 -63t-22.5 -62.5t-57.5 -33.5q-8 -2 -447 -2h-438z" />
<glyph unicode="[" d="M217 757.5q0 665.5 2 676.5q8 31 29 51q22 22 51 28q10 2 403.5 2.5t401.5 -2.5q35 -6 57.5 -33.5t22.5 -62.5t-22.5 -62.5t-57.5 -33.5q-6 -2 -205 -2h-197v-561v-561h197q199 0 205 -2q35 -6 57.5 -34t22.5 -63t-22.5 -62.5t-57.5 -33.5q-10 -2 -402.5 -2t-402.5 2 q-31 6 -51 27q-18 20 -29 53q-2 10 -2 675.5zM414 197h47h47v561v561h-47h-47v-561v-561z" />
<glyph unicode="\" d="M225 1378q-16 41 2 80q19 45 74 55q35 6 70 -14q20 -16 28 -33q12 -18 393.5 -671.5t383.5 -657.5q16 -29 6 -63q-6 -29 -29 -47q-33 -33 -79 -26t-70 48q-10 14 -394 672z" />
<glyph unicode="]" d="M219 98q0 72 72 95l8 2l201 2h200v561v561h-200h-201l-8 4q-47 14 -64 53q-20 39 0 82q19 45 74 55h10h33t48.5 1.5t63.5 1.5h73.5h85h92.5q399 -2 405 -5q16 -2 37 -18q25 -18 35 -51q2 -8 2 -684t-2 -684q-8 -25 -21 -37q-18 -25 -51 -35q-8 -2 -410 -2h-401l-10 4 q-72 20 -72 94zM895 197h47h47v561v561h-47h-47v-561v-561z" />
<glyph unicode="^" d="M219 342q-2 23 10 47q10 23 198.5 385.5t193.5 366.5q14 23 34 33q17 8 31 10t31 0q33 -6 55 -31q4 -2 9 -8t5 -8t94.5 -183.5t190.5 -367t100 -193.5q16 -27 13 -59q-2 -33 -26.5 -57.5t-59.5 -28.5q-45 -6 -80 28q-10 10 -127 187l-154 231l-37 51l-153 -229 q-154 -231 -162 -240q-35 -35 -80 -28q-61 6 -82 65q-4 10 -4 29z" />
<glyph unicode="_" d="M227 -57q21 49 74 55q2 2 399 2q403 0 422 -6q37 -12 54 -51q20 -43 -3.5 -86t-70.5 -52q-6 -2 -406 -2l-397 2l-8 2q-47 14 -64 54q-20 43 0 82z" />
<glyph unicode="`" d="M326 1460q20 47 71 53h6q6 0 17.5 1.5t24 1.5h30h33.5q113 0 131 -7q20 -10 33 -20q4 -4 202 -258q197 -252 199 -254l8 -16q14 -37 1 -73t-48 -52q-20 -10 -45 -11q-31 0 -55 19q-8 4 -299 254q-279 238 -299 258q-39 49 -10 104z" />
<glyph unicode="a" d="M219 346q0 74 2 90q12 98 80 166q63 68 164 86l16 2h215h215l17 -2q25 -4 28 -6q6 -2 8.5 -2h4.5q-2 31 -2 70q0 20 -1 39.5t-2 28.5t-1 11q-12 55 -64 72l-12 4l-199 2q-160 0 -182.5 1t-40.5 10q-35 18 -51 61q-2 8 -2 26.5t2 26.5q4 12 18 35q27 31 64 35h204 q205 0 238 -8q90 -20 150.5 -90t70.5 -162q0 -33 10 -262l13 -367q3 -82 3 -111q0 -15 -1 -16q-4 -35 -31 -59q-28 -28 -63 -28q-14 0 -30 5q-54 16 -69 72v6l-2 6v6l-71 -41q-88 -49 -96.5 -51t-174.5 -2q-174 0 -209 8q-82 23 -137 80q-68 72 -80 168q-2 16 -2 90z M416 274l2 -8q14 -51 65 -67q8 -2 148 -2h141l105 59l104 61q0 23 -2 50q-2 53 -4 59q-10 33 -31 47q-15 12 -31 16l-12 5h-201h-206q-4 0 -17 -5q-43 -16 -59 -63l-2 -10v-70v-72z" />
<glyph unicode="b" d="M217 757.5q0 665.5 2 676.5q8 31 29 51q24 24 51 28q25 4 43 -2q2 0 5 -1t7 -3t6 -2q29 -16 43 -45q8 -16 9.5 -35.5t1.5 -222.5l2 -231l39 33q35 31 69 57q47 27 90 35q41 8 135.5 8t133.5 -8q57 -8 116 -54q57 -43 105 -90q53 -55 72 -129q10 -37 10 -266 q0 -223 -2 -242q-12 -94 -78 -163q-6 -6 -98 -86q-68 -53 -152 -64q-16 -2 -105 -2t-106 2q-51 6 -96 29q-37 16 -107 78l-26 22l-2 -25q0 -31 -11 -51q-10 -27 -43 -45q-23 -10 -45 -10q-17 0 -32 6q-18 6 -35 23q-18 20 -29 53q-2 10 -2 675.5zM416 553q0 -135 2 -141 q2 -12 16 -37q18 -18 94 -82q23 -18 45.5 -37.5t36.5 -30.5l13 -12q8 -6 28 -14q10 -2 99 -2h90l10 2q16 6 70 49q57 47 65 74l4 12v217q0 217 -2 223q-6 20 -16 33q-4 6 -45 41q-41 37 -45 39q-19 14 -33 16q-8 2 -94 4h-26.5t-26 -1t-20.5 -1h-13h-6q-23 -4 -39 -16 q-6 -4 -95 -80q-90 -76 -94 -82q-10 -12 -16 -33l-2 -8v-133z" />
<glyph unicode="c" d="M219 545q0 141 2 160q12 98 78 165q8 8 97 85t106 89q59 48 141 58q14 2 233.5 2t227.5 -2q35 -8 57.5 -35t22.5 -61q0 -68 -60 -91q-18 -8 -243 -8l-222 -2l-8 -2q-16 -6 -28 -14q-6 -4 -95 -80q-90 -76 -94 -82q-10 -12 -16 -33l-2 -8v-133q0 -135 2 -141q2 -12 16 -37 q18 -18 94 -82q20 -16 44 -36.5t36.5 -32t14.5 -11.5q8 -6 28 -14q8 -2 230 -2q229 -2 243 -9q59 -23 60 -90q0 -35 -22.5 -62.5t-57.5 -33.5q-10 -2 -226 -2t-233 2q-84 10 -141 55q-12 10 -100.5 85t-98.5 85q-57 55 -78 138q-8 33 -8 180z" />
<glyph unicode="d" d="M218 553q1 215 3 229q12 98 78 170q41 41 102 90q53 39 117 54q41 8 135 8q76 0 109 -4q80 -10 141 -56q16 -16 47 -40l39 -33v231v104.5t1 69t1 37.5v21v6q14 35 31 47q20 20 47 26q25 4 43 -2q16 -4 37 -18q25 -18 35 -51q2 -8 2 -684t-2 -684q-6 -12 -8 -19 q-14 -31 -46 -45q-21 -10 -42 -10q-16 0 -33 6q-16 4 -35 23q-31 31 -31 82v20q-18 -14 -39 -31q-41 -37 -45 -39q-61 -49 -147 -59q-16 -2 -104.5 -2t-104.5 2q-86 10 -148 59q-78 59 -102 91q-68 68 -80 170q-1 11 -1 110v121zM416 451q0 -123 6 -136l2 -4q8 -20 59 -61 q47 -43 72 -51l10 -2h88q94 0 115 10q12 4 82 65l88 74q37 31 47 60l4 10v135v135l-4 8q-6 23 -18 37q-8 8 -94.5 82t-94.5 78q-15 10 -35 14q-10 2 -91 2t-91 -2q-25 -4 -78 -51q-51 -41 -59 -61l-2 -5q-6 -12 -6 -137v-100v-100z" />
<glyph unicode="e" d="M219 553q0 217 2 233q12 98 78 166q6 6 98 86q64 52 150 64h153h54q100 0 133 -6q68 -16 121 -58q90 -78 96 -86q61 -63 76 -143q6 -31 6 -180q0 -139 -10 -162q-12 -23 -27 -33q-20 -16 -37 -18q-12 -4 -352 -4h-346l2 -39q0 -45 8 -62q8 -20 59 -61q49 -45 70 -51 l10 -2h271q276 -2 290 -9q59 -23 60 -90q0 -35 -22.5 -62.5t-57.5 -33.5q-10 -2 -274.5 -2t-280.5 2q-86 10 -148 59q-78 59 -102 91q-70 70 -78 170q-2 12 -2 231zM414 608h288h287v80q0 86 -10 107q-4 10 -12 18q-2 2 -47 43q-45 39 -70 47l-8 2l-135 2q-145 0 -158 -6 q-16 -4 -64 -45q-10 -8 -21 -18.5t-18.5 -16.5t-9.5 -8q-10 -14 -16 -33l-4 -10v-82z" />
<glyph unicode="f" d="M268 979q-8 25 0 51q12 41 51 62q20 10 82 10l56 2l2 49q0 51 2 66q12 76 49 133q43 68 111 110q69 45 155 51h8q8 0 21.5 1.5t30 1.5h37h40.5q141 0 160 -7q20 -10 31 -20q25 -23 31 -57q2 -12 0 -25q-2 -33 -29 -59q-12 -12 -33 -23q-18 -6 -153 -6q-129 0 -136 -2 q-41 -4 -74.5 -32t-47.5 -66q-6 -20 -9 -72v-43h101q35 0 60.5 -1t37.5 -1h10q35 -8 57.5 -35t22.5 -61.5t-22.5 -62.5t-57.5 -34q-6 -2 -108 -2h-101v-413q0 -414 -2 -420q-8 -25 -20 -37q-12 -18 -33 -27q-21 -10 -42 -10q-17 0 -34 6q-16 4 -35 23q-18 20 -22 34 q-8 18 -8 435v409h-56q-61 0 -82 11q-39 18 -51 61z" />
<glyph unicode="g" d="M219 586v192q12 104 80 174q41 41 102 90q62 46 146 60h104q27 1 48 1q42 0 63 -3q80 -10 141 -56q16 -16 47 -40l39 -33v24q2 33 8 47q10 29 41 48q14 8 37 12q7 1 14 1q28 0 48 -13q25 -14 34 -35q8 -16 9 -17q6 -18 6 -571q0 -545 -2 -563q-12 -94 -78 -164 q-18 -23 -98 -86q-66 -55 -158 -66h-234h-221l-8 2q-72 23 -72 97q0 72 72 94l8 2l223 2h224l8 2q20 6 70 49q57 47 65 74l4 12v146v121.5t-2 23.5q-18 -14 -37 -31q-55 -47 -63 -51q-57 -37 -129 -47q-16 -2 -104.5 -2t-104.5 2q-80 10 -148 59q-6 6 -30.5 28t-46 40 t-25.5 22q-53 55 -72 132q-8 35 -8 221zM416 510q0 -100 6 -113l2 -4q8 -20 59 -61q47 -41 72 -49l10 -4h88q94 0 117 10q14 8 76 61l90 78q39 33 49 59l4 13v92v94l-4 8q-6 23 -18 37q-8 8 -94.5 82t-94.5 78q-15 10 -35 14q-10 2 -91 2t-91 -2q-25 -4 -78 -51 q-51 -41 -59 -61q-8 -14 -8 -28.5v-172.5v-82z" />
<glyph unicode="h" d="M217 757.5q0 665.5 2 676.5q8 31 29 51q24 24 51 28q25 4 43 -2q2 0 5 -1t7 -3t6 -2q29 -16 43 -45q8 -16 9.5 -35.5t1.5 -238.5l2 -248l96 61q92 59 117 74q49 23 98 29q12 1 50 1h45q77 -1 89 -3q98 -14 166 -86q70 -70 82 -172q0 -6 12.5 -364.5t12.5 -375.5 q0 -20 -2 -28q-10 -36 -38 -56q-26 -19 -57 -18h-6q-70 6 -90 76q0 4 -14 377q-4 125 -8 219t-5 124.5t-1 32.5q-12 55 -64 72l-12 4h-72q-84 0 -98 -8q-18 -10 -156 -98l-145 -94l-2 -312v-129q0 -193 -8 -205q0 -2 -3 -4q-14 -29 -43 -45q-23 -10 -45 -10q-17 0 -32 6 q-18 6 -35 23q-18 20 -29 53q-2 10 -2 675.5z" />
<glyph unicode="i" d="M315 98q0 74 72 95l8 2l105 2h104v354v356h-104h-105l-8 4q-39 10 -59 44q-14 23 -14 48q0 12 3 25q6 29 28.5 49.5t51.5 24.5h164h66q100 0 114 -8q2 -2 4 -2q16 -8 33 -25q8 -10 19 -37q2 -8 2 -422v-411h104l105 -2l8 -2q45 -12 61 -52q10 -20 10 -43q0 -25 -10 -43 q-16 -37 -61 -51l-10 -4h-306h-303l-10 4q-72 20 -72 94zM508 1458q0 60 6 76q6 18 23 35q24 22 51 26q6 2 69 2q68 0 88 -10q29 -16 43 -45q10 -20 10 -84q0 -3 1 -5q0 -59 -11 -79q-14 -29 -43 -45q-20 -10 -86 -10q-70 0 -88 6q-16 4 -34 23q-18 20 -23 34q-6 16 -6 76z " />
<glyph unicode="j" d="M317 -176q-3 13 -3 25q0 26 12 47q4 10 18 24q10 10 23 17q25 12 45 12q31 0 57 -19q29 -18 41 -69q12 -53 70 -74l10 -2h112h113l12 4q12 4 31 16q23 18 31 48l2 8v522l2 524h-154q-156 0 -178 11q-39 18 -51 61q-8 25 0 51q10 31 33 51q20 17 49 21h209h86 q129 0 143 -8q2 -2 4 -2q39 -20 51 -62q2 -8 2 -587.5t-2 -600.5q-12 -96 -79 -166q-61 -66 -160 -84l-17 -4h-118q-133 0 -162 6q-55 10 -103 41q-102 70 -129 189zM797 1458q0 60 6 76q6 18 22 35q25 22 52 26q6 2 69 2q68 0 88 -10q29 -16 43 -45q10 -20 10 -83.5 t-10 -84.5q-14 -29 -43 -45q-20 -10 -86 -10q-70 0 -88 6q-16 4 -35 23q-18 20 -22 34q-6 16 -6 76z" />
<glyph unicode="k" d="M217 757.5q0 665.5 2 676.5q8 31 29 51q24 24 51 28q25 4 43 -2q10 -2 37 -18q23 -20 33 -51q2 -8 2 -404l2 -397l254 219q260 221 262 223q12 8 35 17q25 8 47 0q16 -2 37 -19q33 -27 37 -69v-9q0 -35 -25 -63q-4 -10 -205 -176q-43 -37 -96 -83t-78 -67l-25 -22 q111 -94 242 -207q242 -209 252 -215q31 -29 31 -72q0 -16 -2 -24q-14 -50 -64 -68q-18 -6 -33 -7q-30 0 -57 21q-6 4 -258 219.5t-258 221.5l-4 4l-45 -41l-47 -41l-2 -152q0 -125 -1 -142t-10 -34q-14 -29 -43 -45q-23 -10 -45 -10q-17 0 -32 6q-18 6 -35 23 q-18 20 -29 53q-2 10 -2 675.5z" />
<glyph unicode="l" d="M315 98q0 74 72 95l8 2l105 2h104v561v561h-104h-105l-8 4q-39 10 -59 44q-14 23 -14 48q0 12 3 25q6 29 28.5 49t51.5 24h9q10 0 25 1.5t34.5 1.5h45.5h50h72q94 -2 108 -9l4 -2q39 -18 52 -63q2 -8 2 -627v-618h104l105 -2l8 -2q45 -12 61 -52q10 -20 10 -43 q0 -25 -10 -43q-16 -37 -61 -51l-10 -4h-306h-303l-10 4q-72 20 -72 94z" />
<glyph unicode="m" d="M201 551q0 461 4 471q6 31 26 51q23 23 52 29q9 1 18 1q27 1 49 -13q30 -18 41 -48l2 -6q6 2 10 6q57 51 129 60q15 2 30 2q81 0 151 -55q18 -14 32 -33l5 -6l22 18q37 33 45 37q61 39 126 39q14 0 28 -2q78 -12 129 -64q61 -59 71 -145q2 -10 15.5 -399.5t13.5 -401.5 q0 -16 -10 -37q-14 -31 -45 -45q-14 -6 -37 -10q-33 0 -55 14q-20 10 -35 35q-10 18 -12 33l-2 53q-2 53 -6.5 152.5t-6.5 195.5q-12 387 -16 398q-2 10 -19 22q-8 4 -14 4q-2 0 -6 -1t-6 -3q-12 -6 -68 -55l-61 -53l-2 -357q0 -358 -2 -364q-8 -23 -19 -37q-14 -18 -33 -27 q-23 -10 -45 -10q-17 0 -32 6q-14 4 -33 21q-20 20 -29 49q-2 6 -2 403l-2 395l-2 9q-6 14 -20 20q-6 2 -18.5 2t-18.5 -4q-8 -2 -76 -63l-68 -58v-350q-2 -350 -4 -356q-8 -23 -18 -37q-14 -18 -33 -27q-22 -11 -43 -11q-17 0 -33 7q-16 4 -37 23q-20 20 -26 53 q-4 8 -4 469z" />
<glyph unicode="n" d="M217 552q0 460 2 470q8 31 29 51q22 23 51 29q9 2 18 2q27 0 50 -14q29 -18 41 -48q6 -18 6 -63l2 -41l96 61q92 59 117 74q49 23 98 29q12 1 50 1h45q77 -1 89 -3q98 -14 166 -86q70 -70 82 -172q0 -6 12.5 -364.5t12.5 -375.5q0 -20 -2 -28q-10 -36 -38 -56 q-26 -19 -57 -18h-6q-57 4 -84 57q-6 18 -20 396q-4 125 -8 219t-5 124.5t-1 32.5q-12 55 -64 72l-12 4h-72q-84 0 -98 -8q-18 -10 -156 -98l-145 -94l-2 -312v-129q0 -193 -8 -205q0 -2 -3 -4q-14 -29 -43 -45q-23 -10 -45 -10q-17 0 -32 6q-18 6 -35 23q-18 20 -29 53 q-2 10 -2 470z" />
<glyph unicode="o" d="M219 553q0 217 2 233q12 98 78 166q61 61 104 90q60 48 144 60h160q147 0 159 -2q33 -4 58 -15q39 -14 82 -45q12 -10 33.5 -29.5t38 -33.5t20.5 -19q74 -70 86 -176q2 -12 2 -231q0 -217 -2 -236q-12 -98 -86 -172q-35 -35 -92 -80q-51 -41 -121 -57q-29 -6 -183 -6 q-152 0 -184 6q-59 12 -117 55q-78 59 -102 91q-70 70 -78 170q-2 12 -2 231zM416 451q0 -123 6 -136l2 -4q8 -20 59 -61q43 -37 54 -43q23 -10 165 -10q141 0 160 8q20 10 62 47q37 31 46 41t15 29l4 12v217q0 217 -2 223q-8 25 -18 37q-2 4 -42 39t-50 41q-15 10 -29 12 q-6 2 -143 4q-141 0 -156 -6q-12 -2 -29 -14l-43 -39q-47 -39 -57 -68l-4 -10v-217v-102z" />
<glyph unicode="p" d="M219 367v694l2 10q17 56 72 70q25 6 47 0q55 -14 72 -70q2 -8 2 -43l2 -35l39 41q23 20 49 47q72 53 155 62q20 2 42 2q32 0 67 -4q61 -8 117 -43q27 -20 61 -51q143 -123 158 -138q63 -63 80 -159q2 -14 2 -199v-184l-4 -17q-14 -88 -76 -155q-10 -10 -91 -81t-106 -89 q-63 -53 -151 -64q-24 -2 -50.5 -2t-54.5 2q-82 8 -149 62q-2 2 -9.5 9t-18.5 17t-21 21l-41 39v-220v-92q0 -137 -8 -149l-3 -4q-14 -29 -43 -45q-23 -10 -43 -11q-25 0 -45 11q-29 16 -43 45q-2 4 -4 12l-4 6q-2 8 -2 705zM416 410q4 -18 14 -37q6 -8 95 -97.5t100 -97.5 q14 -14 34 -18q10 -4 47 -4t46 4q20 4 118 90q74 61 97 84q10 10 18 35l4 10v172q0 174 -2 180q-10 29 -16 35q-4 4 -93.5 81t-97.5 83q-16 12 -28 14q-6 2 -41 3t-43 -1q-25 -8 -39 -16q-6 -4 -96.5 -94.5t-96.5 -98.5q-12 -14 -16 -30l-4 -13v-137v-50.5v-39.5v-28.5 v-20.5v-8z" />
<glyph unicode="q" d="M218 553q1 215 3 229q12 98 78 170q41 41 102 90q62 46 146 60h104q27 1 48 1q42 0 63 -3q80 -10 141 -56q16 -16 47 -40l39 -33v24q2 33 8 47q10 29 41 48q14 8 37 12q7 1 14 1q28 0 48 -13q25 -14 34 -35q8 -14 13 -35q2 -8 2 -680t-2 -678q-16 -45 -54 -63 q-20 -10 -42.5 -10.5t-43.5 10.5q-31 14 -45 45q-8 14 -8 32.5t-2 223.5v231q-18 -14 -39 -31q-41 -37 -45 -39q-61 -49 -147 -59q-16 -2 -104.5 -2t-104.5 2q-86 10 -148 59q-78 59 -102 91q-68 68 -80 170q-1 11 -1 110v121zM416 451q0 -123 6 -136l2 -4q8 -20 59 -61 q47 -43 72 -51l10 -2h88q94 0 115 10q12 4 82 65l88 74q37 31 47 60l4 10v135v135l-4 8q-6 23 -18 37q-8 8 -94.5 82t-94.5 78q-15 10 -35 14q-10 2 -91 2t-91 -2q-25 -4 -78 -51q-51 -41 -59 -61l-2 -5q-6 -12 -6 -137v-100v-100z" />
<glyph unicode="r" d="M217 552q0 460 2 470q8 31 29 51q22 23 51 29q9 2 18 2q27 0 50 -14q20 -14 34 -35q2 -4 7 -17q6 -16 6 -88l2 -61q51 43 112 96q109 94 121 102q8 6 31 13q6 2 123 2q127 0 160 -6q88 -23 148 -90.5t73 -157.5q2 -18 2 -57t-2 -52q-6 -35 -34 -57.5t-63 -22.5 q-74 0 -94 72q-2 6 -4 53v45l-4 13q-6 18 -16 30q-10 14 -33 25q-16 8 -113 8h-86l-162 -137l-161 -137v-275q0 -242 -1 -263t-10 -38q-14 -29 -43 -45q-23 -10 -45 -10q-17 0 -32 6q-18 6 -35 23q-18 20 -29 53q-2 10 -2 470z" />
<glyph unicode="s" d="M227 139q-10 21 -10 41q0 22 12 43q27 56 89 56h10q29 -6 59 -29q33 -27 64 -39q29 -12 49 -14h207h196l10 2q45 16 64 55q11 22 11 45q0 11 -3 23q-8 34 -37 57q-2 0 -7 3t-7 5q-2 0 -38 16.5t-140.5 61.5t-218.5 96q-150 66 -162 74q-37 16 -66 49q-57 57 -69 143 q-2 15 -2 30q0 83 57 153q64 76 166 92q14 2 237.5 2t237.5 -2q104 -12 182 -90q37 -37 43 -68q8 -25 0 -47q-2 -6 -8 -18q-29 -55 -82 -55q-8 0 -16 1q-41 6 -70 41q-20 27 -53 37l-10 2l-217 2q-221 0 -226 -2q-25 -4 -41 -31q-4 -12 -4 -18q0 -8 4 -16q8 -20 21 -27 q2 -2 184 -84q379 -164 406 -182q74 -49 110 -129q26 -59 26 -119q0 -35 -9 -70q-20 -84 -82 -144t-146 -79q-33 -6 -256 -6q-209 0 -225 4q-43 6 -90 27q-63 25 -105 59q-33 27 -45 49z" />
<glyph unicode="t" d="M219 1006q0 72 72 94q8 2 63 2l58 2v123q0 129 10 151q18 42 67 54q16 4 46 -2l6 -5q8 -2 12 -4q31 -18 43 -43q10 -23 10 -151v-123l201 -2h201l8 -2q45 -12 61 -51q10 -20 10 -43q0 -25 -10 -45q-16 -35 -61 -52l-8 -2h-201h-201l2 -317v-318l4 -10q8 -25 29 -45 q18 -12 31 -16l12 -4h113q119 0 141 10q37 18 51 65q8 37 25 56q30 33 69 33q7 0 15 -1q40 -6 66 -38q21 -26 21 -57q0 -7 -1 -15q-16 -113 -107 -184q-55 -45 -127 -60q-31 -6 -162 -6h-118l-17 4q-98 18 -159 84q-68 72 -80 168q-2 18 -2 334v317h-58q-55 0 -63 2 q-72 23 -72 97z" />
<glyph unicode="u" d="M219 999q0 27 8 45q19 48 74 58q14 4 41 -2q53 -16 70 -72q0 -2 14 -377q4 -125 8 -220t5 -126t1 -33q10 -51 64 -71l12 -4h72q80 0 96 8l158 98l147 96v308q0 313 6 331q0 2 2 5.5t4.5 6.5t2.5 5q10 20 34 35q14 8 37 12q7 1 14 1q28 0 48 -13q25 -14 34 -35 q8 -14 13 -35q2 -8 2 -475q0 -465 -2 -471q-6 -16 -21 -37q-18 -27 -51 -33q-14 -3 -26 -3q-26 0 -48 13q-29 14 -41 47q-6 16 -8 64v41l-98 -64q-121 -76 -154 -86q-27 -10 -61 -14q-18 -2 -95 -2t-89 2q-98 18 -166 86q-70 72 -82 174q0 6 -12.5 363.5t-12.5 373.5z" />
<glyph unicode="v" d="M219 921.5q0 100.5 6 116.5q4 16 23 35q22 23 51 29q9 2 18 2q27 0 50 -14q20 -14 34 -35q2 -4 7 -17q6 -16 6 -102v-76l143 -328l145 -327q66 147 144 327l143 328v76q0 86 6 102q10 23 25 35q16 16 35 25q16 5 32.5 5t32.5 -5q18 -8 35 -25q14 -12 25 -35 q6 -16 6 -116.5t-8 -120.5q-14 -35 -172 -393.5t-160 -362.5q-12 -20 -33 -31q-16 -10 -33 -12q-10 -2 -77.5 -2t-77.5 2q-20 4 -33 12q-18 8 -33 31q-4 6 -162.5 367.5t-169.5 388.5q-8 20 -8 120.5z" />
<glyph unicode="w" d="M203 1036q17 56 76 66q10 2 20 2q43 0 72 -37q10 -10 20 -37q0 -2 1 -11t1 -15q2 -14 10 -289l11 -271l30 -104l31 -104q29 49 64 110l65 109v114q0 123 6 142q12 35 47 51q20 10 43 10q25 0 45 -10q35 -16 48 -51q6 -18 6 -142v-114l63 -109l66 -110q14 45 30 104 l31 104l10 271q8 274 11 289q0 27 10 45q14 31 45 45q23 11 44 11q37 0 69 -34q25 -25 26 -53q0 -70 -8 -297q-12 -297 -12 -299q0 -14 -51 -184q-49 -172 -56 -183q-16 -39 -61 -51q-8 -4 -68 -4q-61 0 -67 2q-37 4 -58 31q-8 8 -65 104q-55 96 -58 96q-25 -43 -55 -96 l-55 -96l-12 -12q-18 -18 -35 -23q-18 -6 -88 -6q-59 0 -68 4q-45 12 -61 51q-6 10 -56 183q-51 170 -51 184q0 2 -12 299q-6 187 -6 263q0 46 2 52z" />
<glyph unicode="x" d="M227 57q-10 22 -10 42q0 30 21 57q2 6 170 206l165 201q0 2 -159 195q-160 195 -162 200q-16 25 -12 54q0 16 8 37q23 43 74 53q14 4 38 -2q27 -6 48 -27q4 -10 149 -180q51 -63 80 -98t43 -51.5t18 -18.5l4 -4q2 0 146 174q145 176 147 178q14 16 31 21q22 11 42 11 q24 0 48 -15q43 -27 47 -78q4 -29 -12 -54q-2 -6 -162 -200q-160 -193 -160 -195q74 -90 166 -201q168 -201 170 -206q20 -26 20 -58v-8q-3 -37 -32 -63q-27 -27 -66 -27h-5q-42 2 -68 33q-10 10 -160 192l-152 185l-8 -7l-155 -190l-158 -188q-27 -25 -62 -25q-11 0 -22 2 q-49 10 -70 55z" />
<glyph unicode="y" d="M219 -313q0 72 72 94q8 2 117 4h110l64 147l65 150h-24q-41 0 -68 14q-20 14 -35 35q0 2 -72.5 167t-146.5 334t-76 173q-6 18 -6 117q0 100 6 116q4 16 23 35q22 23 51 29q9 2 18 2q27 0 50 -14q20 -14 34 -35q2 -4 7 -17q6 -16 6 -102v-76l129 -291l127 -290h32h33 l127 290l127 291v76q0 86 6 102q10 23 25 35q16 16 35 25q17 5 33 5t32 -5q18 -8 35 -25q14 -12 25 -35q6 -16 6 -116.5t-8 -120.5q-4 -10 -132 -302t-254 -576.5t-126 -287.5q-16 -31 -52 -41q-18 -6 -172 -6h-143l-8 2q-72 23 -72 97z" />
<glyph unicode="{" d="M219 758q0 74 72 94q8 4 121 4q119 2 135 10q41 18 53 64q2 6 4 211v202l2 13q18 76 72 117q45 34 98 40h10q8 0 24.5 1.5t36 1.5h44h49.5q158 0 164 -3q35 -6 57.5 -33.5t22.5 -62.5t-22.5 -62.5t-57.5 -33.5q-6 -2 -156 -2h-149v-191q0 -205 -6 -235q-16 -70 -58 -121 l-10 -12q0 -4 8 -12q27 -31 49 -86q10 -39 15 -56l2 -14v-199v-196h149q150 0 156 -2q35 -6 57.5 -34t22.5 -63t-22.5 -62.5t-57.5 -33.5q-6 -2 -164 -2q-166 0 -188 6q-111 29 -142 139q-6 25 -6 230v92q-2 121 -8 133l-2 4q-20 41 -64 53q-8 2 -118 2q-113 2 -121 5 q-72 23 -72 94z" />
<glyph unicode="|" d="M604 375v284h96h99v-288v-121q0 -178 -8 -191q-2 -2 -3 -4q-14 -29 -43 -45q-41 -18 -77 -4q-16 4 -35 23q-18 20 -23 34q-6 15 -6 312zM604 856v285q0 297 6 311q4 14 23 33q24 24 51 28q23 4 43 -2l18 -6q29 -16 43 -45q8 -16 9.5 -38.5t1.5 -276.5v-289h-99h-96z" />
<glyph unicode="}" d="M219 98q0 74 72 95l8 2l152 2h153v190q0 193 2 211q2 29 15 64q16 45 49 86q8 8 8 12q-6 6 -10 12q-41 51 -58 121q-6 31 -6 235v191h-153h-152l-8 4q-47 14 -64 53q-20 39 0 82q19 45 74 55h10q8 0 23.5 1.5t34 1.5h44h48.5q166 0 190 -7q111 -29 142 -139q6 -25 6 -229 l2 -203l2 -10q12 -43 53 -62q20 -10 135 -10t133 -8q59 -23 59.5 -90.5t-59.5 -89.5q-14 -6 -133 -9q-115 0 -135 -10q-31 -12 -47 -45q-8 -14 -8 -30.5t-2 -198.5v-205l-2 -12q-12 -47 -41 -86q-47 -53 -115 -68l-14 -4h-162h-164l-10 4q-72 20 -72 94z" />
<glyph unicode="~" d="M219 1112q0 125 2 143q12 100 80 170q76 76 178 88q76 8 154 -26q76 -39 117 -105q37 -55 45 -114q4 -16 4 -92l2 -74l4 -12q12 -43 51 -62q18 -8 41 -8q20 2 37 10q33 16 45 47q10 18 10 150q2 133 10 151q16 29 45 43q20 10 43 10.5t43 -10.5q29 -14 46 -43 q10 -23 10 -157q0 -131 -4 -148q-6 -41 -25 -82q-63 -125 -194 -157q-31 -8 -62 -9q-100 -4 -182 59.5t-107 164.5q-8 31 -8 114l-2 76l-4 10q-12 41 -51 62q-18 8 -41 8q-53 -4 -82 -55q-8 -16 -10 -152q0 -129 -11 -149q-10 -27 -43 -45q-23 -10 -43 -11q-25 0 -45 11 q-29 16 -43 45q-10 20 -10 149z" />
<glyph d="M170 -49v807v807h530h533v-807v-807h-533h-530z" />
<glyph unicode="&#xa0;" d="M799 1081z" />
<glyph unicode="&#xa3;" d="M219 98q0 74 72 95q8 2 76 4h69q29 104 66 231q68 217 67 231h-135l-135 3l-8 2q-72 23 -72 94q0 74 72 94l8 4h164h166l65 227q63 215 72 240q43 113 145 162q42 18 93 28q16 2 53 2.5t47 -2.5q35 -6 57.5 -33.5t22.5 -62.5q0 -74 -74 -96l-6 -2h-16.5h-24.5 q-47 -2 -64 -10q-31 -12 -47 -45q-16 -49 -61 -207q-57 -193 -57 -201h131q133 0 139 -2q35 -6 57.5 -33.5t22.5 -62.5t-22.5 -61.5t-57.5 -34.5q-6 -2 -168 -3h-162v-2q0 -2 -67 -231l-68 -229h233q238 -2 252 -9q59 -23 60 -90q0 -37 -23.5 -64.5t-58.5 -31.5 q-6 -2 -406 -2h-397l-8 4q-72 20 -72 94z" />
<glyph unicode="&#xa5;" d="M219 592q0 74 72 96l8 2h152h153v21v20l-186 320q-166 276 -191 325q-20 39 0 82q19 45 74 55q33 6 66 -12q12 -6 30 -31q6 -14 156 -264l147 -254l5 4l147 252l152 258q25 41 69.5 48.5t79.5 -25.5q14 -12 23 -31q20 -43 0 -82q-6 -12 -191 -325l-186 -320v-20v-21h149 h156q35 -8 57.5 -34.5t22.5 -63.5q0 -35 -22.5 -61.5t-57.5 -34.5h-156h-149v-209q0 -168 -1 -190.5t-10 -41.5q-14 -29 -43 -45q-41 -18 -77 -4q-16 4 -35 23q-18 20 -23 34q-6 14 -6 230v203h-153h-152l-8 2q-72 23 -72 94z" />
<glyph unicode="&#xa6;" d="M604 -195v1170v1171h96h99v-1171v-1170h-99h-96z" />
<glyph unicode="&#xad;" d="M227 717q-20 43 0 82q21 49 74 55q2 2 399 2q403 0 422 -6q37 -12 54 -51q20 -43 -3.5 -86t-70.5 -51q-6 -2 -406 -3l-397 3l-8 2q-47 14 -64 53z" />
<glyph unicode="&#xb4;" d="M508 1417.5q0 18.5 2 24.5q10 31 33 51q20 16 49 20h113q119 0 137 -8q29 -16 43 -45q10 -20 10 -43q0 -16 -49 -266q-12 -59 -24.5 -124.5t-19.5 -99.5t-7 -36q-4 -16 -23 -35q-25 -27 -59 -31q-18 -2 -43 4q-23 8 -37 25q-16 16 -25 37q0 2 -7 36t-19.5 99.5 t-24.5 124.5q-49 248 -49 266.5z" />
<glyph unicode="&#xb7;" d="M459 241.5q0 151.5 2 161.5q4 27 28 52q21 22 50 28h7h17t29.5 1t47.5 1h65h71q94 -2 109 -8l4 -2q31 -14 45 -45q10 -20 10 -92v-96q0 -131 -1 -150.5t-9 -36.5q-14 -31 -45 -45q-18 -8 -35.5 -9t-146.5 -1q-164 0 -183 6q-16 4 -35 23q-23 23 -28 53q-2 8 -2 159.5z " />
<glyph unicode="&#xb8;" d="M412 550.5q0 59.5 6 76.5q4 16 22 35q21 20 52 26q6 2 213 2q170 0 192.5 -1t40.5 -9q29 -16 43 -43q8 -16 9 -37.5t1 -253.5v-108q0 -164 -8 -179q-2 -2 -2 -4q-14 -29 -43 -45q-20 -10 -86 -10q-70 0 -88 6q-16 4 -35 23q-18 20 -22 34q-6 14 -7 189v160h-100 q-109 0 -125 6q-18 8 -35 24q-18 16 -22 33q-6 16 -6 75.5z" />
<glyph unicode="&#xbf;" d="M219 922q0 41 31 71q6 6 288.5 249t295.5 251q20 16 45 20q37 6 69 -14q8 -6 102.5 -86t104.5 -90q20 -20 27 -45l4 -10v-99v-98l-4 -10q-4 -20 -19 -35q-12 -14 -280 -244l-275 -233l-2 -234q0 -193 -1 -217t-9 -43q-14 -29 -43 -45q-41 -18 -78 -4q-16 4 -35 23 q-23 23 -28 53q-2 8 -2 263t2 265q6 29 28 52q31 31 281 239l268 232v36v37l-22 21l-47 39l-25 22l-260 -221q-264 -225 -266 -227q-45 -29 -97 -4q-53 27 -53 86z" />
<glyph unicode="&#xc4;" d="M217 1335q0 90 2 99q8 31 29 51q24 24 51 28q25 4 43 -2q2 0 5 -1t7 -3t6 -2q33 -18 43 -45q10 -20 11 -119q2 -100 -6 -122q-14 -41 -56 -58q-12 -6 -36.5 -6t-41.5 8q-45 23 -55 72q-2 10 -2 100zM221 76q-8 23 0 43q0 6 387 1001q2 2 6 10.5t7 10.5q14 23 34 33 q17 8 31 10t31 0q33 -6 55 -31q10 -6 14 -16q4 -6 199 -506t197 -510q8 -23 0 -47q-10 -41 -46 -60.5t-75 -9.5q-39 8 -62 49q-2 6 -69 180l-6 13h-222h-223l-37 -94q-8 -20 -18 -46t-15.5 -38.5t-5.5 -14.5q-6 -12 -20 -26q-41 -39 -94 -23t-68 72zM555 444l74 -2h145l74 2 l-74 185q-72 184 -72 186l-2 -4q-2 -6 -8 -19.5t-14 -34t-20.5 -53t-28.5 -73.5zM989 1334q0 89 2 100q4 27 29 51q20 22 49 28q25 4 43 -2l18 -6q31 -14 46 -45q10 -20 10 -119q0 -106 -6 -122q-16 -41 -56 -58q-14 -6 -37 -6q-27 0 -43 8q-43 23 -53 72q-2 10 -2 99z" />
<glyph unicode="&#xc5;" d="M221 76q-8 23 0 45q0 2 16.5 58.5t49 170t61.5 211.5l127 432q-4 0 -10 2q-41 10 -76 37q-57 43 -72 117q-2 12 -2 102q0 92 2 105q14 70 72 117q45 34 98 40h13q12 0 32.5 1.5t47 1.5h60.5h67l211 -3l12 -2q53 -12 86 -41q55 -45 69 -114q2 -12 2 -105q0 -90 -2 -102 q-14 -70 -69 -115q-35 -29 -78 -39l-10 -2q57 -195 125 -432l129 -440q8 -23 0 -47q-10 -35 -38 -55.5t-63 -18.5q-63 4 -86 63q-2 2 -41 138l-36 129h-218h-215l-39 -131q-39 -135 -40 -138q-10 -29 -37 -45q-41 -27 -88.5 -8t-59.5 68zM510 1186h190h193v65v68h-193h-190 v-68v-65zM543 526h80h157h80l-67 230q-68 229 -68 231t-25 2q-23 0 -22.5 -2t-67.5 -231z" />
<glyph unicode="&#xc6;" d="M221 76q-8 23 0 45q2 12 245 675.5t247 669.5q10 16 35 35q12 8 32 12q10 2 163 2.5t161 -2.5q35 -6 57.5 -33.5t22.5 -62.5t-22.5 -62.5t-57.5 -33.5q-6 -2 -109 -2h-100v-232v-231h100q102 0 109 -2q35 -6 57.5 -33.5t22.5 -62.5t-22.5 -61.5t-57.5 -34.5 q-6 -2 -109 -3h-100v-231v-231h100q102 0 109 -2q35 -6 57.5 -34t22.5 -63t-22.5 -62.5t-57.5 -33.5q-10 -2 -161.5 -2t-162.5 2q-31 6 -51 27q-18 20 -22 34q-6 18 -7 146v121h-98q-98 0 -98 -2l-6 -17q-6 -18 -19.5 -54t-23.5 -64q-47 -133 -52 -140q-6 -12 -20 -26 q-41 -39 -94 -23t-68 72zM578 526h59h61v168v166l-61 -166z" />
<glyph unicode="&#xd1;" d="M219 84v432q0 424 2 430q6 18 19 39q26 27 63 35q31 0 39 -2q2 -2 9 -5t13.5 -6t10.5 -6q8 -8 311 -329l303 -326v297v131q2 176 8 187q2 2 2 4q18 41 62 53q27 4 51 0q27 -10 37 -21q25 -18 35 -51q2 -8 2 -436t-2 -436q-6 -12 -8 -19q-14 -31 -46 -45q-37 -18 -75 -4 q-16 4 -35 23q-37 37 -307 327l-297 318l-2 -297v-123q0 -182 -8 -195l-3 -4q-14 -29 -43 -45q-16 -6 -36 -10q-35 0 -58 14q-20 10 -35 35q-10 20 -12 35zM219 1376q0 60 6 76q4 14 23 33q22 22 51 28q2 0 7 1.5t7 1.5q14 0 342 -37q80 -8 165 -17.5t130 -13.5l43 -4 q2 4 2 8q8 16 25 33q12 14 35 24q41 12 75 -4q31 -14 46 -45q8 -16 10 -78q0 -63 -6 -82q-4 -14 -23 -32q-25 -27 -59 -31q-27 0 -348 35l-336 35q-4 0 -6 -7q-6 -18 -21 -32q-20 -25 -59 -31q-37 -4 -64 14q-20 12 -33 33q-2 2 -4 8t-2 8q-6 16 -6 76z" />
<glyph unicode="&#xd8;" d="M221 76q-10 31 6 63q4 10 68 117l65 113l-38 75l-52 103q-12 29 -18 41q-23 55 -31 119q-4 51 0 102q10 68 29 115q6 14 116.5 236t118.5 235q51 78 138 106q26 10 49 12q70 10 141.5 -24.5t116.5 -116.5l8 -14q4 0 33 55q33 57 45 72q27 27 65 31q68 4 95 -58 q20 -43 0 -82q0 -2 -9.5 -17.5t-27 -46t-31.5 -55.5l-66 -110l54 -107q47 -92 61 -125q51 -137 10 -282q-12 -39 -129 -275l-118 -233q-20 -33 -35 -47q-57 -59 -139 -73.5t-156 22.5q-76 37 -117 116l-8 15q-2 -2 -33 -56q-35 -61 -49 -75q-41 -39 -94 -23t-68 72zM418 719 q4 -25 12 -47q2 -6 24.5 -53.5t24.5 -47.5q338 578 340 582q0 2 -34.5 71.5t-41.5 75.5q-14 15 -28 17q-35 6 -56 -17q-10 -10 -114 -223l-113 -229q-10 -20 -14 -51q-8 -41 0 -78zM584 360l34 -69q35 -70 41 -78q12 -12 29 -14q29 -8 55 14q6 8 68 131l111 221 q39 74 55 113q14 49 12 98q-6 51 -41 123l-22 45q-2 0 -172 -291t-170 -293z" />
<glyph unicode="&#xf6;" d="M217 1335q0 90 2 99q8 31 29 51q24 24 51 28q25 4 43 -2q2 0 5 -1t7 -3t6 -2q33 -18 43 -45q10 -20 11 -119q2 -100 -6 -122q-14 -41 -56 -58q-12 -6 -36.5 -6t-41.5 8q-45 23 -55 72q-2 10 -2 100zM219 586q0 70 2 82q2 37 23 73q6 10 176 252q70 98 86 119 q59 60 143 72q51 4 103 0q98 -12 159 -90q2 -2 9.5 -12.5t19.5 -27t23 -30.5l112 -160l76 -108q27 -43 33 -88q2 -12 2 -82q-2 -68 -4 -82q-10 -43 -29 -70q0 -2 -12.5 -18.5t-38 -52t-43.5 -62.5l-115 -164q-25 -37 -33 -45q-61 -78 -159 -90q-51 -4 -101 0q-98 12 -159 90 q-8 8 -120 167t-122 177q-20 31 -27 68q-4 14 -4 82zM414 541l78 -111l114 -164q37 -51 41 -55q6 -6 15 -10l8 -4h30h33l8 4q8 4 15 10q12 12 69 96l115 164l49 70v51q0 51 -2 55l-6 8q-6 10 -18.5 27.5t-22.5 32.5l-113 159q-14 20 -32.5 46t-27.5 39.5t-11 15.5 q-9 8 -15 10l-8 4h-28h-35q-6 -2 -23 -12q0 -2 -6 -10.5t-15.5 -21.5t-17.5 -25l-114 -162l-78 -113v-51zM989 1334q0 89 2 100q4 27 29 51q20 22 49 28q25 4 43 -2l18 -6q31 -14 46 -45q10 -20 10 -119q0 -106 -6 -122q-16 -41 -56 -58q-14 -6 -37 -6q-27 0 -43 8 q-43 23 -53 72q-2 10 -2 99z" />
<glyph unicode="&#xfc;" d="M218 686q-1 408 1 418q10 49 51 70q15 8 31 10q14 2 31 0q35 -6 51 -27q20 -18 29 -47q2 -6 2 -420q2 -414 4 -420q12 -45 53 -63q2 0 4 -2q10 -6 39 -7t188 -1q168 0 192 1t40 9q41 20 53 63q2 6 2 420v145.5v106.5t1 73t1 49v27.5v14.5v4q16 47 51 64q63 33 117 -21 q16 -14 21 -31q6 -20 6 -436q0 -410 -2 -428q-4 -41 -29 -94q-70 -141 -227 -162q-18 -2 -226 -2q-209 0 -221 2q-102 12 -176 85t-84 175q-2 16 -3 424zM410 1335q0 90 2 99q4 27 28.5 51t51.5 28q23 4 43 -2l18 -6q29 -16 43 -45q10 -20 10 -119q2 -100 -6 -122 q-12 -39 -55 -58q-12 -6 -37 -6t-41 8q-45 23 -55 72q-2 10 -2 100zM795 1334q0 89 2 100q4 27 28.5 51t51.5 28q25 4 41 -2q2 0 20 -6q29 -16 43 -45q10 -20 10 -119q0 -106 -6 -122q-12 -39 -55 -58q-12 -6 -37 -6t-43 8q-43 23 -53 72q-2 10 -2 99z" />
<glyph unicode="&#x2000;" horiz-adv-x="1073" />
<glyph unicode="&#x2001;" horiz-adv-x="2146" />
<glyph unicode="&#x2002;" horiz-adv-x="1073" />
<glyph unicode="&#x2003;" horiz-adv-x="2146" />
<glyph unicode="&#x2004;" horiz-adv-x="715" />
<glyph unicode="&#x2005;" horiz-adv-x="536" />
<glyph unicode="&#x2006;" horiz-adv-x="357" />
<glyph unicode="&#x2007;" horiz-adv-x="357" />
<glyph unicode="&#x2008;" horiz-adv-x="268" />
<glyph unicode="&#x2009;" horiz-adv-x="429" />
<glyph unicode="&#x200a;" horiz-adv-x="119" />
<glyph unicode="&#x2010;" d="M219 716.5q0 59.5 6 76.5q4 14 23 34q24 21 51 27q6 2 408 2q399 0 405 -2q25 -8 37 -20q18 -12 27 -33q10 -20 10 -84t-10 -84q-8 -20 -27 -33q-12 -12 -37 -20q-6 -2 -403 -2q-399 0 -406 2q-16 0 -37 12q-20 10 -35 35q-2 2 -4 7t-2 7q-6 16 -6 75.5z" />
<glyph unicode="&#x2011;" d="M219 716.5q0 59.5 6 76.5q4 14 23 34q24 21 51 27q6 2 408 2q399 0 405 -2q25 -8 37 -20q18 -12 27 -33q10 -20 10 -84t-10 -84q-8 -20 -27 -33q-12 -12 -37 -20q-6 -2 -403 -2q-399 0 -406 2q-16 0 -37 12q-20 10 -35 35q-2 2 -4 7t-2 7q-6 16 -6 75.5z" />
<glyph unicode="&#x2012;" d="M219 716.5q0 59.5 6 76.5q4 14 23 34q24 21 51 27q6 2 408 2q399 0 405 -2q25 -8 37 -20q18 -12 27 -33q10 -20 10 -84t-10 -84q-8 -20 -27 -33q-12 -12 -37 -20q-6 -2 -403 -2q-399 0 -406 2q-16 0 -37 12q-20 10 -35 35q-2 2 -4 7t-2 7q-6 16 -6 75.5z" />
<glyph unicode="&#x2013;" horiz-adv-x="1521" d="M219 716.5q0 59.5 6 76.5q5 14 25 34q25 21 54 27q6 2 432 2q422 0 429 -2q26 -8 39 -20q19 -12 28 -33q11 -20 11 -84t-11 -84q-8 -20 -28 -33q-13 -12 -39 -20q-7 -2 -427 -2q-423 0 -430 2q-17 0 -39 12q-21 10 -37 35q-2 2 -4.5 7t-2.5 7q-6 16 -6 75.5z" />
<glyph unicode="&#x2014;" horiz-adv-x="2545" d="M219 716.5q0 59.5 13 76.5q8 14 48 34q51 21 108 27q13 2 865 2q845 0 857 -2q53 -8 79 -20q38 -12 57 -33q21 -20 21 -84t-21 -84q-17 -20 -57 -33q-26 -12 -79 -20q-12 -2 -853 -2q-845 0 -860 2q-34 0 -78 12q-43 10 -75 35q-4 2 -8 7t-4 7q-13 16 -13 75.5z" />
<glyph unicode="&#x202f;" horiz-adv-x="429" />
<glyph unicode="&#x205f;" horiz-adv-x="536" />
<glyph unicode="&#x25fc;" horiz-adv-x="1105" d="M0 0v1106h1106v-1106h-1106z" />
</font>
</defs>
</svg>
